# File created by Blade
# Date/Time:  Thu Jan 22 16:10:22 2015
#---------------------------------------------------------
:version 1.10
:name HOM
:units
  mass 1.0
  length 1.000000
  angle deg
:documentation
     Acclaim Skeleton File
:root
   axis xyz
   order TX TY TZ RX RY RZ
   position 0.000000 0.000000 0.000000
   orientation 0 0 0
:bonedata
   begin
      id 1
      name RightUpLeg_dum
      direction -1.000000 0.000000 0.000000
      length 3.766986
      axis 0.0 0.0 0.0 xyz
   end
   begin
      id 2
      name LeftUpLeg_dum
      direction 1.000000 0.000000 0.000000
      length 3.766986
      axis 0.0 0.0 0.0 xyz
   end
   begin
      id 3
      name Spine_dum
      direction 0.000000 1.000000 0.000000
      length 7.779697
      axis 0.0 0.0 0.0 xyz
   end
   begin
      id 4
      name RightUpLeg
      direction 0.000000 -1.000000 0.000000
      length 18.017682
      axis 0.0 0.0 0.0 xyz
      dof rx ry rz
   end
   begin
      id 5
      name RightLeg
      direction 0.000000 -1.000000 0.000000
      length 16.881075
      axis 0.0 0.0 0.0 xyz
      dof rx ry rz
   end
   begin
      id 6
      name RightFoot
      direction 0.000000 -0.258819 0.965926
      length 5.770812
      axis 15.0 0.0 0.0 xyz
      dof rx ry rz
   end
   begin
      id 7
      name RightToeBase
      direction 0.000000 0.000000 1.000000
      length 2.952750
      axis 0.0 0.0 0.0 xyz
      dof rx ry rz
   end
   begin
      id 8
      name LeftUpLeg
      direction 0.000000 -1.000000 0.000000
      length 18.017682
      axis 0.0 0.0 0.0 xyz
      dof rx ry rz
   end
   begin
      id 9
      name LeftLeg
      direction 0.000000 -1.000000 0.000000
      length 16.881075
      axis 0.0 0.0 0.0 xyz
      dof rx ry rz
   end
   begin
      id 10
      name LeftFoot
      direction 0.000000 -0.258819 0.965926
      length 5.770812
      axis 15.0 0.0 0.0 xyz
      dof rx ry rz
   end
   begin
      id 11
      name LeftToeBase
      direction 0.000000 0.000000 1.000000
      length 2.952750
      axis 0.0 0.0 0.0 xyz
      dof rx ry rz
   end
   begin
      id 12
      name Spine
      direction 0.000000 1.000000 0.000000
      length 0.000000
      axis 0.0 0.0 0.0 xyz
      dof rx ry rz
   end
   begin
      id 13
      name Spine_dum1
      direction 0.000000 1.000000 0.000000
      length 10.941760
      axis 0.0 0.0 0.0 xyz
   end
   begin
      id 14
      name Spine_dum2
      direction 0.000000 1.000000 0.000000
      length 10.941760
      axis 0.0 0.0 0.0 xyz
   end
   begin
      id 15
      name Spine_dum3
      direction 0.000000 1.000000 0.000000
      length 16.646042
      axis 0.0 0.0 0.0 xyz
   end
   begin
      id 16
      name RightShoulder
      direction -1.000000 0.000000 0.000000
      length 7.708937
      axis 0.0 0.0 90.0 xyz
      dof rx ry rz
   end
   begin
      id 17
      name RightArm
      direction -1.000000 0.000000 0.000000
      length 11.521345
      axis 0.0 0.0 90.0 xyz
      dof rx ry rz
   end
   begin
      id 18
      name RightForeArm
      direction -1.000000 0.000000 0.000000
      length 10.175898
      axis 0.0 0.0 90.0 xyz
      dof ry rz rx
   end
   begin
      id 19
      name RightHand
      direction -1.000000 0.000000 0.000000
      length 0.000000
      axis 0.0 0.0 90.0 xyz
      dof rx ry rz
   end
   begin
      id 20
      name RightHand_dum1
      direction -1.000000 0.000000 0.000000
      length 3.937000
      axis 0.0 0.0 90.0 xyz
   end
   begin
      id 21
      name RightHand_dum2
      direction 0.000000 0.000000 0.000000
      length 0.000000
      axis 0.0 0.0 90.0 xyz
   end
   begin
      id 22
      name RightHandThumb1
      direction 0.000000 0.000000 1.000000
      length 3.937000
      axis 0.0 0.0 90.0 xyz
      dof rx rz ry
   end
   begin
      id 23
      name LeftShoulder
      direction 1.000000 0.000000 0.000000
      length 7.708937
      axis 0.0 0.0 -90.0 xyz
      dof rx ry rz
   end
   begin
      id 24
      name LeftArm
      direction 1.000000 0.000000 0.000000
      length 11.521345
      axis 0.0 0.0 -90.0 xyz
      dof rx ry rz
   end
   begin
      id 25
      name LeftForeArm
      direction 1.000000 0.000000 0.000000
      length 10.175898
      axis 0.0 0.0 -90.0 xyz
      dof ry rz rx
   end
   begin
      id 26
      name LeftHand
      direction 1.000000 0.000000 0.000000
      length 0.000000
      axis 0.0 0.0 -90.0 xyz
      dof rx ry rz
   end
   begin
      id 27
      name LeftHand_dum1
      direction 1.000000 0.000000 0.000000
      length 3.937000
      axis 0.0 0.0 -90.0 xyz
   end
   begin
      id 28
      name LeftHand_dum2
      direction 0.000000 0.000000 0.000000
      length 0.000000
      axis 0.0 0.0 -90.0 xyz
   end
   begin
      id 29
      name LeftHandThumb1
      direction 0.000000 0.000000 1.000000
      length 3.937000
      axis 0.0 0.0 -90.0 xyz
      dof rx rz ry
   end
   begin
      id 30
      name Head
      direction 0.000000 1.000000 0.000000
      length 4.527550
      axis 0.0 0.0 0.0 xyz
      dof rx ry rz
   end
:hierarchy
   begin
      root RightUpLeg_dum LeftUpLeg_dum Spine_dum
      RightUpLeg_dum RightUpLeg
      LeftUpLeg_dum LeftUpLeg
      Spine_dum Spine
      RightUpLeg RightLeg
      RightLeg RightFoot
      RightFoot RightToeBase
      LeftUpLeg LeftLeg
      LeftLeg LeftFoot
      LeftFoot LeftToeBase
      Spine Spine_dum1 Spine_dum2 Spine_dum3
      Spine_dum1 RightShoulder
      Spine_dum2 LeftShoulder
      Spine_dum3 Head
      RightShoulder RightArm
      RightArm RightForeArm
      RightForeArm RightHand
      RightHand RightHand_dum1 RightHand_dum2
      RightHand_dum2 RightHandThumb1
      LeftShoulder LeftArm
      LeftArm LeftForeArm
      LeftForeArm LeftHand
      LeftHand LeftHand_dum1 LeftHand_dum2
      LeftHand_dum2 LeftHandThumb1
   end

# File created by Blade
# Date/Time:  Thu Jan 22 16:10:14 2015
# Frame Rate: 120.000 fps
#------------------------------------------------------
:FULLY-SPECIFIED
:DEGREES
88
root 1.539353 37.209713 3.487738 -2.790196 -4.951076 1.910743
RightUpLeg 10.705727 0.179147 -4.027535
RightLeg -5.339241 -0.000000 0.000000
RightFoot -10.747152 -12.201201 17.176174
RightToeBase 14.368667 -0.000000 -0.000000
LeftUpLeg 9.547234 3.603005 1.344206
LeftLeg -2.599992 -0.000000 0.000000
LeftFoot -8.506188 11.404661 -18.401349
LeftToeBase 9.190899 -0.000000 -0.000000
Spine 6.329935 -2.767721 -2.621649
RightShoulder -6.852141 -9.692151 -29.627920
RightArm 6.397186 30.557692 29.297924
RightForeArm 5.683205 -0.000000 19.228370
RightHand 1.611505 -0.000000 4.474648
RightHandThumb1 -24.326973 -0.000000 -32.862282
LeftShoulder -26.757802 32.291365 16.209988
LeftArm 38.899326 -52.113365 -51.445815
LeftForeArm 34.935243 -0.000000 5.021179
LeftHand -18.614085 -0.000000 -8.122977
LeftHandThumb1 -26.253704 0.000000 33.147579
Head 10.139959 12.191121 4.378067
89
root 1.538137 37.209189 3.489266 -2.792128 -4.944242 1.913273
RightUpLeg 10.715396 0.216113 -4.025975
RightLeg -5.346368 -0.000000 0.000000
RightFoot -10.753871 -12.224505 17.182810
RightToeBase 14.351301 -0.000000 -0.000000
LeftUpLeg 9.542521 3.591582 1.342600
LeftLeg -2.582922 -0.000000 0.000000
LeftFoot -8.526643 11.403757 -18.419705
LeftToeBase 9.202865 -0.000000 -0.000000
Spine 6.321444 -2.766519 -2.616662
RightShoulder -6.853464 -9.695817 -29.611871
RightArm 6.401966 30.566239 29.303042
RightForeArm 5.675189 -0.000000 19.256446
RightHand 1.629772 0.000000 4.458186
RightHandThumb1 -24.326973 -0.000000 -32.862282
LeftShoulder -26.748963 32.294346 16.210505
LeftArm 38.937167 -52.107400 -51.480775
LeftForeArm 34.935604 -0.000000 5.034829
LeftHand -18.631778 -0.000000 -8.113729
LeftHandThumb1 -26.253704 0.000000 33.147579
Head 10.156902 12.168602 4.387654
90
root 1.537248 37.208674 3.491174 -2.803451 -4.936915 1.907071
RightUpLeg 10.762093 0.316255 -4.007269
RightLeg -5.405445 -0.000000 0.000000
RightFoot -10.761350 -12.303381 17.237284
RightToeBase 14.387038 -0.000000 -0.000000
LeftUpLeg 9.549223 3.578732 1.349521
LeftLeg -2.567815 -0.000000 0.000000
LeftFoot -8.536009 11.404585 -18.409370
LeftToeBase 9.195114 -0.000000 -0.000000
Spine 6.327261 -2.778632 -2.593238
RightShoulder -6.860243 -9.696664 -29.611047
RightArm 6.432875 30.579956 29.324181
RightForeArm 5.638264 -0.000000 19.280156
RightHand 1.651971 -0.000000 4.478313
RightHandThumb1 -24.326973 -0.000000 -32.862282
LeftShoulder -26.738863 32.277735 16.204656
LeftArm 38.932528 -52.103612 -51.486953
LeftForeArm 34.971857 -0.000000 5.052679
LeftHand -18.610339 -0.000000 -8.148988
LeftHandThumb1 -26.253704 0.000000 33.147579
Head 10.169292 12.197286 4.397565
91
root 1.537541 37.208068 3.492923 -2.808658 -4.935681 1.918891
RightUpLeg 10.744361 0.289691 -4.023423
RightLeg -5.354627 -0.000000 0.000000
RightFoot -10.789653 -12.268503 17.208734
RightToeBase 14.380121 -0.000000 -0.000000
LeftUpLeg 9.547942 3.593913 1.339985
LeftLeg -2.553645 -0.000000 0.000000
LeftFoot -8.539989 11.394325 -18.406247
LeftToeBase 9.172645 -0.000000 -0.000000
Spine 6.323362 -2.786600 -2.596684
RightShoulder -6.858586 -9.717706 -29.598040
RightArm 6.466481 30.607258 29.345578
RightForeArm 5.635133 -0.000000 19.309482
RightHand 1.621509 -0.000000 4.508814
RightHandThumb1 -24.326973 -0.000000 -32.862282
LeftShoulder -26.735247 32.269091 16.201718
LeftArm 38.931512 -52.087043 -51.482298
LeftForeArm 34.982404 0.000000 5.057993
LeftHand -18.647010 -0.000000 -8.137617
LeftHandThumb1 -26.253704 0.000000 33.147579
Head 10.183114 12.212535 4.406482
92
root 1.537389 37.207664 3.495048 -2.816611 -4.923490 1.923381
RightUpLeg 10.755660 0.302703 -4.026164
RightLeg -5.349420 -0.000000 0.000000
RightFoot -10.804865 -12.281346 17.227297
RightToeBase 14.361288 -0.000000 -0.000000
LeftUpLeg 9.547138 3.580553 1.334613
LeftLeg -2.531463 -0.000000 0.000000
LeftFoot -8.550808 11.388057 -18.404211
LeftToeBase 9.182286 -0.000000 -0.000000
Spine 6.322928 -2.794541 -2.589807
RightShoulder -6.867648 -9.742564 -29.586975
RightArm 6.500064 30.623695 29.364926
RightForeArm 5.661795 -0.000000 19.332618
RightHand 1.617694 0.000000 4.539407
RightHandThumb1 -24.326973 -0.000000 -32.862282
LeftShoulder -26.734777 32.276734 16.188929
LeftArm 38.998672 -52.109269 -51.547434
LeftForeArm 35.022980 -0.000000 5.072080
LeftHand -18.637919 -0.000000 -8.100477
LeftHandThumb1 -26.253704 0.000000 33.147579
Head 10.197220 12.173301 4.398648
93
root 1.537287 37.207158 3.496252 -2.826919 -4.919652 1.929861
RightUpLeg 10.771975 0.331265 -4.030482
RightLeg -5.360166 -0.000000 0.000000
RightFoot -10.814862 -12.308376 17.239338
RightToeBase 14.402231 -0.000000 -0.000000
LeftUpLeg 9.548135 3.578890 1.330063
LeftLeg -2.510262 -0.000000 0.000000
LeftFoot -8.560359 11.375069 -18.400249
LeftToeBase 9.178786 -0.000000 -0.000000
Spine 6.330815 -2.797586 -2.589565
RightShoulder -6.865137 -9.749798 -29.572444
RightArm 6.504852 30.632116 29.368056
RightForeArm 5.598215 -0.000000 19.364677
RightHand 1.527285 -0.000000 4.676611
RightHandThumb1 -24.326973 -0.000000 -32.862282
LeftShoulder -26.718135 32.263326 16.199501
LeftArm 38.986754 -52.106543 -51.554719
LeftForeArm 35.048871 -0.000000 5.096439
LeftHand -18.634797 -0.000000 -8.126059
LeftHandThumb1 -26.253704 0.000000 33.147579
Head 10.201845 12.174807 4.409668
94
root 1.536118 37.206808 3.497845 -2.836343 -4.913176 1.929073
RightUpLeg 10.795577 0.383559 -4.020250
RightLeg -5.373664 -0.000000 0.000000
RightFoot -10.824157 -12.359205 17.237797
RightToeBase 14.363626 -0.000000 -0.000000
LeftUpLeg 9.550977 3.569945 1.333459
LeftLeg -2.491990 -0.000000 0.000000
LeftFoot -8.569326 11.368950 -18.393244
LeftToeBase 9.186513 -0.000000 -0.000000
Spine 6.337009 -2.805776 -2.580652
RightShoulder -6.863499 -9.778994 -29.560662
RightArm 6.526419 30.683492 29.393613
RightForeArm 5.580007 -0.000000 19.403633
RightHand 1.652330 -0.000000 4.610247
RightHandThumb1 -24.326973 -0.000000 -32.862282
LeftShoulder -26.711480 32.257402 16.195727
LeftArm 39.003132 -52.115542 -51.581466
LeftForeArm 35.096184 0.000000 5.118074
LeftHand -18.669014 0.000000 -8.220511
LeftHandThumb1 -26.253704 0.000000 33.147579
Head 10.209848 12.164209 4.413172
95
root 1.536514 37.206658 3.499003 -2.838960 -4.912113 1.933279
RightUpLeg 10.795051 0.377669 -4.025501
RightLeg -5.363737 -0.000000 0.000000
RightFoot -10.834468 -12.347951 17.230192
RightToeBase 14.373422 -0.000000 -0.000000
LeftUpLeg 9.545452 3.562362 1.328532
LeftLeg -2.472907 -0.000000 0.000000
LeftFoot -8.585599 11.365422 -18.420104
LeftToeBase 9.198188 -0.000000 -0.000000
Spine 6.334623 -2.804138 -2.573412
RightShoulder -6.867547 -9.795004 -29.550713
RightArm 6.541966 30.686410 29.404972
RightForeArm 5.553849 -0.000000 19.430896
RightHand 1.688322 -0.000000 4.577094
RightHandThumb1 -24.326973 -0.000000 -32.862282
LeftShoulder -26.694115 32.240270 16.201001
LeftArm 38.985060 -52.106893 -51.578455
LeftForeArm 35.115016 -0.000000 5.145609
LeftHand -18.626054 -0.000000 -8.170930
LeftHandThumb1 -26.253704 0.000000 33.147579
Head 10.217738 12.146555 4.416521
96
root 1.536760 37.206134 3.500523 -2.847652 -4.911719 1.940923
RightUpLeg 10.802177 0.387048 -4.031622
RightLeg -5.357277 -0.000000 0.000000
RightFoot -10.850414 -12.352637 17.229442
RightToeBase 14.388941 -0.000000 -0.000000
LeftUpLeg 9.555231 3.542599 1.318066
LeftLeg -2.472363 -0.000000 0.000000
LeftFoot -8.592159 11.391801 -18.403807
LeftToeBase 9.169635 -0.000000 -0.000000
Spine 6.339260 -2.806429 -2.574652
RightShoulder -6.858846 -9.783953 -29.547835
RightArm 6.539574 30.679460 29.414913
RightForeArm 5.546085 -0.000000 19.447424
RightHand 1.686345 0.000000 4.535750
RightHandThumb1 -24.326973 -0.000000 -32.862282
LeftShoulder -26.684343 32.257281 16.200912
LeftArm 38.986948 -52.110430 -51.600544
LeftForeArm 35.115802 -0.000000 5.179350
LeftHand -18.616339 -0.000000 -8.230190
LeftHandThumb1 -26.253704 0.000000 33.147579
Head 10.224935 12.125991 4.410363
97
root 1.535978 37.206433 3.501390 -2.847569 -4.909915 1.939955
RightUpLeg 10.811708 0.410961 -4.027125
RightLeg -5.369257 -0.000000 0.000000
RightFoot -10.844033 -12.381363 17.230149
RightToeBase 14.374484 -0.000000 -0.000000
LeftUpLeg 9.550026 3.537314 1.320857
LeftLeg -2.459345 -0.000000 0.000000
LeftFoot -8.596252 11.381335 -18.408789
LeftToeBase 9.206188 -0.000000 -0.000000
Spine 6.339174 -2.791820 -2.561126
RightShoulder -6.877209 -9.792881 -29.541687
RightArm 6.550383 30.678568 29.433071
RightForeArm 5.547873 -0.000000 19.472779
RightHand 1.658931 0.000000 4.481467
RightHandThumb1 -24.326973 -0.000000 -32.862282
LeftShoulder -26.671246 32.258344 16.185071
LeftArm 39.005919 -52.108366 -51.602081
LeftForeArm 35.114315 -0.000000 5.186875
LeftHand -18.499587 -0.000000 -8.129723
LeftHandThumb1 -26.253704 0.000000 33.147579
Head 10.222579 12.106818 4.415256
98
root 1.534568 37.206174 3.502790 -2.852582 -4.914339 1.934619
RightUpLeg 10.847802 0.486691 -4.010008
RightLeg -5.427009 -0.000000 0.000000
RightFoot -10.839360 -12.450666 17.264245
RightToeBase 14.383242 -0.000000 -0.000000
LeftUpLeg 9.549916 3.565529 1.333027
LeftLeg -2.441342 -0.000000 0.000000
LeftFoot -8.600323 11.348497 -18.420006
LeftToeBase 9.143565 -0.000000 -0.000000
Spine 6.342785 -2.786879 -2.548215
RightShoulder -6.876153 -9.811418 -29.526430
RightArm 6.570106 30.683452 29.433133
RightForeArm 5.561581 -0.000000 19.467707
RightHand 1.634925 -0.000000 4.514936
RightHandThumb1 -24.326973 -0.000000 -32.862282
LeftShoulder -26.667551 32.255089 16.186628
LeftArm 39.010629 -52.095460 -51.613739
LeftForeArm 35.115643 -0.000000 5.207038
LeftHand -18.509244 0.000000 -8.171470
LeftHandThumb1 -26.253704 0.000000 33.147579
Head 10.228469 12.097413 4.424433
